PathFileType	4	(x/y/z)	TRC_MarkerData\Passive\Passive_Pref0005.trc
DataRate	CameraRate	NumFrames	NumMarkers	Units	OrigDataRate	OrigDataStartFrame	OrigNumFrames
240	240	9	50	mm	240	79	313
Frame#	Time	R_AC			L_AC			HEAD			STERN			C7			L_IC			R_IC			L_ASIS			R_ASIS			L_GT			R_GT			L_PSIS			R_PSIS			SACRAL			L_LAT_KNEE			L_MED_KNEE			R_LAT_KNEE			R_MED_KNEE			L_LAT_ANK			L_MED_ANK			R_LAT_ANK			R_MED_ANK			L_THIGH_PROX_POST			L_THIGH_PROX_ANT			L_THIGH_DIST_ANT			L_THIGH_DIST_POST			R_THIGH_PROX_POST			R_THIGH_PROX_ANT			R_THIGH_DIST_ANT			R_THIGH_DIST_POST			L_SHANK_PROX_POST			L_SHANK_PROX_ANT			L_SHANK_DIST_ANT			L_SHANK_DIST_POST			R_SHANK_PROX_POST			R_SHANK_PROX_ANT			R_SHANK_DIST_ANT			R_SHANK_DIST_POST			L_HEEL_LAT			L_HEEL_SUP			L_HEEL_MED			R_HEEL_LAT			R_HEEL_SUP			R_HEEL_MED			L_1ST_MET			L_5TH_MET			L_TOE			R_1ST_MET			R_5TH_MET			R_TOE			
		X1	Y1	Z1	X2	Y2	Z2	X3	Y3	Z3	X4	Y4	Z4	X5	Y5	Z5	X6	Y6	Z6	X7	Y7	Z7	X8	Y8	Z8	X9	Y9	Z9	X10	Y10	Z10	X11	Y11	Z11	X12	Y12	Z12	X13	Y13	Z13	X14	Y14	Z14	X15	Y15	Z15	X16	Y16	Z16	X17	Y17	Z17	X18	Y18	Z18	X19	Y19	Z19	X20	Y20	Z20	X21	Y21	Z21	X22	Y22	Z22	X23	Y23	Z23	X24	Y24	Z24	X25	Y25	Z25	X26	Y26	Z26	X27	Y27	Z27	X28	Y28	Z28	X29	Y29	Z29	X30	Y30	Z30	X31	Y31	Z31	X32	Y32	Z32	X33	Y33	Z33	X34	Y34	Z34	X35	Y35	Z35	X36	Y36	Z36	X37	Y37	Z37	X38	Y38	Z38	X39	Y39	Z39	X40	Y40	Z40	X41	Y41	Z41	X42	Y42	Z42	X43	Y43	Z43	X44	Y44	Z44	X45	Y45	Z45	X46	Y46	Z46	X47	Y47	Z47	X48	Y48	Z48	X49	Y49	Z49	X50	Y50	Z50	

79	0.32604	-475.82	1536.4	459.46	-485.24	1549.8	52.281	-441.49	1864.7	262.4	-406.33	1507.7	260.14	-542.85	1582.7	254.08	NaN	NaN	NaN	NaN	NaN	NaN	-426.28	1049.5	143.27	-437.67	1057.4	410	-517.81	967.09	89.904	-517.57	974.54	455.78	-628.49	1060.1	212.55	-636.42	1055.6	319.78	-643.84	1023.7	263.83	-465.78	569.62	136.73	-472.15	588.57	274.59	-405.58	566.34	452.75	-388.27	557.87	317.11	-512.74	114.76	175.04	-523.64	115.83	262.23	-731.2	240.36	409.35	-673.21	237.55	319.23	-517.99	783.83	108.94	-454.67	781.41	108.66	-447.4	712.22	124.56	-512.22	711.31	119.92	-479.65	788.59	461.84	-415.15	810.34	464.68	-396.32	736.18	464.25	-463.44	716.53	457.59	-492.74	470.92	158.49	-429.98	472.34	168.39	-430.58	422.79	178.37	-487.19	422.54	158.93	-536.44	450.52	459.14	-482.9	410.41	447.98	-533.37	356.65	435.32	-587.73	396.88	444.78	-565.06	36.999	178.2	-583.2	64.176	207.47	-578.22	40.69	243.67	-811.13	250.99	374.85	-788.27	274.04	343.75	-787.93	241.58	313.81	-359.31	53.432	297.9	-367.39	47.823	186.96	-309.85	70.534	270.78	-634.62	102.05	340.26	-668.31	105.99	444.38	-599.94	77.292	384.1
80	0.33022	-471.4	1536.7	459.38	-480.2	1550.3	52.219	-436.73	1865	262.25	-401.61	1508	260.13	-538.16	1583	253.91	NaN	NaN	NaN	NaN	NaN	NaN	-421.71	1049.7	142.87	-433.08	1057.9	409.55	-513.43	967.29	89.541	-512.55	975.02	455.48	-623.85	1060.3	212.2	-631.84	1055.8	319.46	-639.11	1023.9	263.47	-463.47	569.61	136.44	-469.7	588.67	274.29	-396.7	567.66	452.37	-379.96	559.45	316.71	-512.49	114.87	175.02	-523.45	115.98	262.14	-718	236.72	409.51	-660.17	235.21	319.22	-514.55	784.23	108.55	-451.19	781.38	108.34	-444.3	712.17	124.23	-509.1	711.54	119.62	-472.91	789.42	461.78	-408.65	811.79	464.3	-389.04	737.77	463.87	-456.01	717.49	457.55	-490.86	471.03	158.27	-428.08	472.19	168.16	-428.9	422.65	178.17	-485.5	422.65	158.72	-526.11	449.78	459.24	-472.05	410.51	447.63	-521.78	356.07	435.01	-576.67	395.45	444.94	-564.97	37.185	178.19	-582.99	64.348	207.44	-578.17	40.897	243.63	-798.18	245.71	375.39	-776.14	269.35	344.17	-775.15	236.88	314.22	-359.18	53.225	297.9	-367.28	47.644	186.97	-309.67	70.186	270.78	-618.69	100.66	340.02	-652.13	103.67	444.21	-583.35	76.581	383.72
81	0.3344	-466.96	1536.9	459.29	-475.17	1550.7	52.155	-432	1865.3	262.11	-396.89	1508.2	260.13	-533.48	1583.3	253.75	NaN	NaN	NaN	NaN	NaN	NaN	-417.14	1049.8	142.48	-428.5	1058.3	409.11	-509.07	967.46	89.184	-507.54	975.48	455.19	-619.22	1060.5	211.84	-627.26	1055.9	319.15	-634.39	1024	263.11	-461.16	569.59	136.16	-467.26	588.75	274.01	-387.93	568.98	451.99	-371.77	561.01	316.32	-512.24	114.97	175	-523.27	116.14	262.06	-704.69	232.99	409.67	-647.04	232.77	319.23	-511.11	784.61	108.17	-447.74	781.34	108.02	-441.22	712.11	123.92	-505.98	711.75	119.35	-466.23	790.23	461.74	-402.19	813.21	463.91	-381.82	739.34	463.48	-448.63	718.44	457.52	-488.98	471.14	158.06	-426.19	472.03	167.95	-427.21	422.52	177.98	-483.81	422.75	158.52	-515.83	448.99	459.34	-461.23	410.59	447.28	-510.2	355.45	434.7	-565.61	393.97	445.11	-564.87	37.376	178.18	-582.78	64.523	207.41	-578.11	41.101	243.59	-785.09	240.32	375.92	-763.86	264.53	344.58	-762.26	232.05	314.63	-359.04	53.02	297.9	-367.17	47.471	186.98	-309.49	69.841	270.79	-602.67	99.244	339.82	-635.86	101.35	444.08	-566.69	75.872	383.38
82	0.33858	-462.5	1537	459.2	-470.16	1551	52.089	-427.27	1865.5	261.98	-392.15	1508.5	260.11	-528.79	1583.6	253.59	NaN	NaN	NaN	NaN	NaN	NaN	-412.59	1049.9	142.1	-423.91	1058.6	408.68	-504.72	967.6	88.833	-502.53	975.91	454.9	-614.62	1060.6	211.49	-622.71	1056	318.86	-629.68	1024	262.76	-458.86	569.57	135.9	-464.83	588.83	273.75	-379.25	570.28	451.61	-363.69	562.53	315.93	-511.98	115.08	174.99	-523.1	116.29	261.98	-691.28	229.19	409.84	-633.82	230.25	319.25	-507.68	784.97	107.81	-444.31	781.29	107.73	-438.15	712.03	123.62	-502.87	711.94	119.1	-459.59	791.05	461.71	-395.76	814.6	463.52	-374.66	740.89	463.08	-441.31	719.37	457.5	-487.09	471.25	157.87	-424.3	471.87	167.75	-425.53	422.38	177.8	-482.13	422.86	158.34	-505.58	448.16	459.43	-450.46	410.65	446.94	-498.62	354.81	434.41	-554.56	392.43	445.27	-564.78	37.57	178.17	-582.58	64.703	207.38	-578.04	41.303	243.55	-771.87	234.83	376.42	-751.44	259.59	344.98	-749.25	227.1	315.04	-358.92	52.819	297.9	-367.06	47.304	187	-309.31	69.5	270.81	-586.56	97.806	339.66	-619.51	99.04	443.98	-549.98	75.168	383.1
83	0.34276	-458.03	1537.1	459.11	-465.16	1551.4	52.02	-422.56	1865.7	261.86	-387.42	1508.7	260.08	-524.09	1583.8	253.44	NaN	NaN	NaN	NaN	NaN	NaN	-408.05	1049.9	141.73	-419.33	1059	408.27	-500.38	967.72	88.489	-497.52	976.31	454.61	-610.03	1060.7	211.15	-618.17	1056.1	318.6	-624.96	1024.1	262.42	-456.56	569.55	135.66	-462.41	588.89	273.51	-370.68	571.56	451.24	-355.72	564.02	315.55	-511.73	115.19	174.97	-522.94	116.45	261.9	-677.78	225.32	410.01	-620.52	227.67	319.28	-504.25	785.32	107.47	-440.9	781.24	107.44	-435.1	711.94	123.33	-499.77	712.12	118.88	-453	791.85	461.7	-389.37	815.96	463.13	-367.56	742.4	462.68	-434.05	720.3	457.47	-485.21	471.36	157.68	-422.41	471.71	167.56	-423.85	422.24	177.64	-480.45	422.96	158.17	-495.38	447.29	459.51	-439.73	410.7	446.62	-487.05	354.15	434.13	-543.51	390.84	445.42	-564.69	37.77	178.16	-582.37	64.889	207.35	-577.95	41.502	243.51	-758.52	229.26	376.91	-738.88	254.55	345.36	-736.12	222.04	315.46	-358.79	52.621	297.9	-366.94	47.144	187.01	-309.14	69.164	270.82	-570.36	96.356	339.53	-603.08	96.746	443.93	-533.21	74.479	382.87
84	0.34694	-453.55	1537.2	459.01	-460.17	1551.7	51.947	-417.87	1865.9	261.75	-382.68	1508.9	260.05	-519.39	1584	253.29	NaN	NaN	NaN	NaN	NaN	NaN	-403.52	1050	141.37	-414.73	1059.3	407.86	-496.06	967.81	88.153	-492.52	976.69	454.33	-605.46	1060.7	210.82	-613.64	1056.1	318.35	-620.25	1024.1	262.08	-454.26	569.52	135.44	-460.01	588.95	273.29	-362.21	572.83	450.87	-347.86	565.47	315.17	-511.48	115.31	174.96	-522.79	116.62	261.83	-664.17	221.4	410.18	-607.12	225.01	319.33	-500.82	785.65	107.16	-437.51	781.17	107.17	-432.07	711.84	123.05	-496.68	712.28	118.68	-446.46	792.64	461.7	-383	817.29	462.74	-360.52	743.88	462.27	-426.86	721.21	457.44	-483.34	471.47	157.52	-420.53	471.54	167.39	-422.18	422.1	177.5	-478.77	423.06	158.01	-485.22	446.38	459.58	-429.04	410.74	446.3	-475.5	353.47	433.85	-532.48	389.21	445.55	-564.59	37.974	178.15	-582.18	65.085	207.32	-577.85	41.697	243.47	-745.03	223.6	377.38	-726.18	249.41	345.73	-722.89	216.89	315.87	-358.67	52.428	297.9	-366.83	46.989	187.03	-308.97	68.834	270.84	-554.09	94.901	339.43	-586.58	94.477	443.91	-516.41	73.809	382.68
85	0.35112	-449.04	1537.3	458.92	-455.19	1552	51.872	-413.18	1866	261.65	-377.93	1509	260.01	-514.68	1584.2	253.15	NaN	NaN	NaN	NaN	NaN	NaN	-399	1050	141.02	-410.14	1059.6	407.47	-491.76	967.88	87.825	-487.52	977.04	454.06	-600.91	1060.8	210.49	-609.14	1056.2	318.13	-615.55	1024.1	261.76	-451.97	569.5	135.23	-457.61	589	273.08	-353.85	574.08	450.5	-340.1	566.88	314.8	-511.22	115.43	174.96	-522.64	116.78	261.76	-650.47	217.43	410.35	-593.63	222.3	319.38	-497.41	785.96	106.87	-434.15	781.1	106.91	-429.05	711.73	122.78	-493.6	712.43	118.5	-439.98	793.41	461.71	-376.67	818.57	462.35	-353.55	745.33	461.86	-419.73	722.1	457.41	-481.47	471.57	157.36	-418.65	471.38	167.24	-420.51	421.96	177.36	-477.1	423.16	157.86	-475.1	445.44	459.64	-418.4	410.77	445.99	-463.95	352.78	433.59	-521.46	387.54	445.68	-564.5	38.183	178.13	-582	65.291	207.29	-577.73	41.89	243.44	-731.42	217.87	377.83	-713.33	244.18	346.08	-709.54	211.65	316.28	-358.55	52.24	297.9	-366.72	46.84	187.04	-308.8	68.51	270.85	-537.74	93.45	339.36	-570.02	92.241	443.93	-499.56	73.165	382.54
86	0.3553	-444.52	1537.3	458.82	-450.23	1552.3	51.792	-408.5	1866.2	261.56	-373.18	1509.2	259.96	-509.96	1584.4	253	NaN	NaN	NaN	NaN	NaN	NaN	-394.49	1049.9	140.67	-405.53	1059.9	407.09	-487.48	967.94	87.508	-482.53	977.37	453.8	-596.4	1060.8	210.18	-604.64	1056.2	317.93	-610.85	1024	261.45	-449.69	569.47	135.04	-455.24	589.04	272.89	-345.6	575.31	450.13	-332.46	568.25	314.44	-510.97	115.56	174.95	-522.5	116.95	261.7	-636.67	213.42	410.52	-580.05	219.53	319.45	-494	786.25	106.6	-430.81	781.02	106.67	-426.06	711.62	122.53	-490.54	712.57	118.33	-433.54	794.17	461.72	-370.39	819.81	461.96	-346.64	746.74	461.45	-412.67	722.97	457.37	-479.6	471.67	157.21	-416.78	471.21	167.09	-418.85	421.81	177.23	-475.43	423.26	157.72	-465.04	444.46	459.68	-407.82	410.8	445.68	-452.43	352.07	433.34	-510.45	385.83	445.79	-564.4	38.398	178.12	-581.83	65.51	207.26	-577.59	42.08	243.4	-717.67	212.09	378.27	-700.33	238.88	346.43	-696.09	206.35	316.69	-358.44	52.059	297.9	-366.61	46.698	187.06	-308.64	68.192	270.87	-521.33	92.009	339.32	-553.41	90.044	443.98	-482.68	72.554	382.44
87	0.35948	-439.98	1537.3	458.73	-445.28	1552.5	51.709	-403.83	1866.3	261.48	-368.42	1509.3	259.89	-505.23	1584.5	252.87	NaN	NaN	NaN	NaN	NaN	NaN	-389.98	1049.9	140.33	-400.91	1060.1	406.73	-483.21	967.98	87.203	-477.54	977.68	453.54	-591.92	1060.8	209.87	-600.16	1056.2	317.76	-606.16	1024	261.16	-447.41	569.43	134.86	-452.87	589.07	272.72	-337.47	576.51	449.76	-324.92	569.56	314.08	-510.71	115.69	174.95	-522.37	117.12	261.64	-622.77	209.38	410.69	-566.39	216.72	319.53	-490.6	786.53	106.35	-427.49	780.93	106.44	-423.07	711.49	122.28	-487.49	712.72	118.18	-427.16	794.9	461.73	-364.14	821.01	461.57	-339.81	748.1	461.03	-405.69	723.81	457.33	-477.73	471.78	157.07	-414.92	471.05	166.96	-417.19	421.67	177.12	-473.77	423.35	157.59	-455.02	443.46	459.69	-397.29	410.82	445.39	-440.92	351.36	433.11	-499.45	384.1	445.88	-564.3	38.62	178.1	-581.68	65.743	207.24	-577.44	42.269	243.37	-703.79	206.25	378.67	-687.19	233.51	346.75	-682.53	200.98	317.1	-358.32	51.886	297.89	-366.5	46.561	187.08	-308.48	67.882	270.89	-504.87	90.587	339.3	-536.75	87.891	444.05	-465.78	71.982	382.38
